<svg xmlns="http://www.w3.org/2000/svg" width="1200" height="520" viewBox="0 0 1200 520"><rect x="6" y="6" width="1188" height="508" rx="22" fill="#fffdf8" stroke="#d8dee9" stroke-width="1" /><text x="40" y="40" font-size="28" font-family="Helvetica,Arial,sans-serif" font-weight="700" fill="#1f2933" text-anchor="start">Adaptive 60/20 Time-Condition Results</text><text x="40" y="64" font-size="15" font-family="Helvetica,Arial,sans-serif" font-weight="400" fill="#52606d" text-anchor="start">Condition metrics are averaged across all fixed horizons and condition definitions.</text><line x1="70" y1="410.0" x2="1170" y2="410.0" stroke="#e5e7eb" stroke-width="1"/><text x="60" y="414.0" font-size="11" font-family="Helvetica,Arial,sans-serif" font-weight="400" fill="#52606d" text-anchor="end">0.00</text><line x1="70" y1="325.0" x2="1170" y2="325.0" stroke="#e5e7eb" stroke-width="1"/><text x="60" y="329.0" font-size="11" font-family="Helvetica,Arial,sans-serif" font-weight="400" fill="#52606d" text-anchor="end">1.20</text><line x1="70" y1="240.0" x2="1170" y2="240.0" stroke="#e5e7eb" stroke-width="1"/><text x="60" y="244.0" font-size="11" font-family="Helvetica,Arial,sans-serif" font-weight="400" fill="#52606d" text-anchor="end">2.41</text><line x1="70" y1="155.0" x2="1170" y2="155.0" stroke="#e5e7eb" stroke-width="1"/><text x="60" y="159.0" font-size="11" font-family="Helvetica,Arial,sans-serif" font-weight="400" fill="#52606d" text-anchor="end">3.61</text><line x1="70" y1="70.0" x2="1170" y2="70.0" stroke="#e5e7eb" stroke-width="1"/><text x="60" y="74.0" font-size="11" font-family="Helvetica,Arial,sans-serif" font-weight="400" fill="#52606d" text-anchor="end">4.82</text><text x="253.33333333333334" y="460" font-size="13" font-family="Helvetica,Arial,sans-serif" font-weight="700" fill="#1f2933" text-anchor="middle">Mean condition balanced accuracy</text><rect x="90.0" y="369.1256282308501" width="20" height="40.87437176914989" rx="6" fill="#7a4f9a" stroke="#7a4f9a" stroke-width="1" /><rect x="113.0" y="363.3148043113363" width="20" height="46.685195688663725" rx="6" fill="#c75c38" stroke="#c75c38" stroke-width="1" /><rect x="136.0" y="365.21566426200576" width="20" height="44.78433573799424" rx="6" fill="#2f7d5d" stroke="#2f7d5d" stroke-width="1" /><rect x="159.0" y="359.94323692173583" width="20" height="50.05676307826417" rx="6" fill="#2e5bff" stroke="#2e5bff" stroke-width="1" /><rect x="182.0" y="352.4955744509894" width="20" height="57.50442554901059" rx="6" fill="#b83280" stroke="#b83280" stroke-width="1" /><rect x="205.0" y="354.37384433539694" width="20" height="55.62615566460306" rx="6" fill="#0f8b8d" stroke="#0f8b8d" stroke-width="1" /><rect x="228.0" y="353.46365291559135" width="20" height="56.536347084408646" rx="6" fill="#d97706" stroke="#d97706" stroke-width="1" /><text x="620.0" y="460" font-size="13" font-family="Helvetica,Arial,sans-serif" font-weight="700" fill="#1f2933" text-anchor="middle">Mean Brier</text><rect x="456.6666666666667" y="393.7685667643872" width="20" height="16.231433235612826" rx="6" fill="#7a4f9a" stroke="#7a4f9a" stroke-width="1" /><rect x="479.6666666666667" y="388.0264542964202" width="20" height="21.973545703579816" rx="6" fill="#c75c38" stroke="#c75c38" stroke-width="1" /><rect x="502.6666666666667" y="397.82771929583663" width="20" height="12.17228070416337" rx="6" fill="#2f7d5d" stroke="#2f7d5d" stroke-width="1" /><rect x="525.6666666666667" y="392.0018353321482" width="20" height="17.998164667851825" rx="6" fill="#2e5bff" stroke="#2e5bff" stroke-width="1" /><rect x="548.6666666666667" y="405.34550509727126" width="20" height="4.654494902728743" rx="6" fill="#b83280" stroke="#b83280" stroke-width="1" /><rect x="571.6666666666666" y="405.1106625334228" width="20" height="4.889337466577217" rx="6" fill="#0f8b8d" stroke="#0f8b8d" stroke-width="1" /><rect x="594.6666666666667" y="404.9727690039486" width="20" height="5.027230996051401" rx="6" fill="#d97706" stroke="#d97706" stroke-width="1" /><text x="986.6666666666667" y="460" font-size="13" font-family="Helvetica,Arial,sans-serif" font-weight="700" fill="#1f2933" text-anchor="middle">Mean log loss</text><rect x="823.3333333333334" y="185.74605908542566" width="20" height="224.25394091457434" rx="6" fill="#7a4f9a" stroke="#7a4f9a" stroke-width="1" /><rect x="846.3333333333334" y="106.42857142857144" width="20" height="303.57142857142856" rx="6" fill="#c75c38" stroke="#c75c38" stroke-width="1" /><rect x="869.3333333333334" y="330.7286337284306" width="20" height="79.27136627156938" rx="6" fill="#2f7d5d" stroke="#2f7d5d" stroke-width="1" /><rect x="892.3333333333334" y="161.34549313782443" width="20" height="248.65450686217557" rx="6" fill="#2e5bff" stroke="#2e5bff" stroke-width="1" /><rect x="915.3333333333334" y="394.91830701184585" width="20" height="15.081692988154145" rx="6" fill="#b83280" stroke="#b83280" stroke-width="1" /><rect x="938.3333333333334" y="394.1158890331651" width="20" height="15.884110966834896" rx="6" fill="#0f8b8d" stroke="#0f8b8d" stroke-width="1" /><rect x="961.3333333333334" y="393.686207147807" width="20" height="16.31379285219299" rx="6" fill="#d97706" stroke="#d97706" stroke-width="1" /><rect x="960" y="78" width="14" height="14" rx="3" fill="#7a4f9a" stroke="#7a4f9a" stroke-width="1" /><text x="982" y="90" font-size="13" font-family="Helvetica,Arial,sans-serif" font-weight="500" fill="#1f2933" text-anchor="start">Global</text><rect x="960" y="104" width="14" height="14" rx="3" fill="#c75c38" stroke="#c75c38" stroke-width="1" /><text x="982" y="116" font-size="13" font-family="Helvetica,Arial,sans-serif" font-weight="500" fill="#1f2933" text-anchor="start">Transition</text><rect x="960" y="130" width="14" height="14" rx="3" fill="#2f7d5d" stroke="#2f7d5d" stroke-width="1" /><text x="982" y="142" font-size="13" font-family="Helvetica,Arial,sans-serif" font-weight="500" fill="#1f2933" text-anchor="start">Mechanistic</text><rect x="960" y="156" width="14" height="14" rx="3" fill="#2e5bff" stroke="#2e5bff" stroke-width="1" /><text x="982" y="168" font-size="13" font-family="Helvetica,Arial,sans-serif" font-weight="500" fill="#1f2933" text-anchor="start">Neural</text><rect x="960" y="182" width="14" height="14" rx="3" fill="#b83280" stroke="#b83280" stroke-width="1" /><text x="982" y="194" font-size="13" font-family="Helvetica,Arial,sans-serif" font-weight="500" fill="#1f2933" text-anchor="start">MT Neural</text><rect x="960" y="208" width="14" height="14" rx="3" fill="#0f8b8d" stroke="#0f8b8d" stroke-width="1" /><text x="982" y="220" font-size="13" font-family="Helvetica,Arial,sans-serif" font-weight="500" fill="#1f2933" text-anchor="start">Continuous</text><rect x="960" y="234" width="14" height="14" rx="3" fill="#d97706" stroke="#d97706" stroke-width="1" /><text x="982" y="246" font-size="13" font-family="Helvetica,Arial,sans-serif" font-weight="500" fill="#1f2933" text-anchor="start">Transformer</text><line x1="70" y1="410.0" x2="1170" y2="410.0" stroke="#9aa5b1" stroke-width="1.5"/></svg>