<svg xmlns="http://www.w3.org/2000/svg" width="1200" height="520" viewBox="0 0 1200 520"><rect x="6" y="6" width="1188" height="508" rx="22" fill="#fffdf8" stroke="#d8dee9" stroke-width="1" /><text x="40" y="40" font-size="28" font-family="Helvetica,Arial,sans-serif" font-weight="700" fill="#1f2933" text-anchor="start">Adaptive 60/20 One-Step Results</text><text x="40" y="64" font-size="15" font-family="Helvetica,Arial,sans-serif" font-weight="400" fill="#52606d" text-anchor="start">Higher is better for accuracy; lower is better for time MAE.</text><line x1="70" y1="410.0" x2="1170" y2="410.0" stroke="#e5e7eb" stroke-width="1"/><text x="60" y="414.0" font-size="11" font-family="Helvetica,Arial,sans-serif" font-weight="400" fill="#52606d" text-anchor="end">0.00</text><line x1="70" y1="325.0" x2="1170" y2="325.0" stroke="#e5e7eb" stroke-width="1"/><text x="60" y="329.0" font-size="11" font-family="Helvetica,Arial,sans-serif" font-weight="400" fill="#52606d" text-anchor="end">0.59</text><line x1="70" y1="240.0" x2="1170" y2="240.0" stroke="#e5e7eb" stroke-width="1"/><text x="60" y="244.0" font-size="11" font-family="Helvetica,Arial,sans-serif" font-weight="400" fill="#52606d" text-anchor="end">1.18</text><line x1="70" y1="155.0" x2="1170" y2="155.0" stroke="#e5e7eb" stroke-width="1"/><text x="60" y="159.0" font-size="11" font-family="Helvetica,Arial,sans-serif" font-weight="400" fill="#52606d" text-anchor="end">1.77</text><line x1="70" y1="70.0" x2="1170" y2="70.0" stroke="#e5e7eb" stroke-width="1"/><text x="60" y="74.0" font-size="11" font-family="Helvetica,Arial,sans-serif" font-weight="400" fill="#52606d" text-anchor="end">2.36</text><text x="253.33333333333334" y="460" font-size="13" font-family="Helvetica,Arial,sans-serif" font-weight="700" fill="#1f2933" text-anchor="middle">One-step type accuracy</text><rect x="90.0" y="395.8235564757304" width="20" height="14.176443524269587" rx="6" fill="#7a4f9a" stroke="#7a4f9a" stroke-width="1" /><rect x="113.0" y="358.71463077984816" width="20" height="51.285369220151836" rx="6" fill="#c75c38" stroke="#c75c38" stroke-width="1" /><rect x="136.0" y="366.0041407867495" width="20" height="43.995859213250526" rx="6" fill="#2f7d5d" stroke="#2f7d5d" stroke-width="1" /><rect x="159.0" y="339.03151598803777" width="20" height="70.96848401196223" rx="6" fill="#2e5bff" stroke="#2e5bff" stroke-width="1" /><rect x="182.0" y="338.6576949620428" width="20" height="71.3423050379572" rx="6" fill="#b83280" stroke="#b83280" stroke-width="1" /><rect x="205.0" y="338.9596273291926" width="20" height="71.04037267080741" rx="6" fill="#0f8b8d" stroke="#0f8b8d" stroke-width="1" /><rect x="228.0" y="340.7999769956292" width="20" height="69.20002300437079" rx="6" fill="#d97706" stroke="#d97706" stroke-width="1" /><text x="620.0" y="460" font-size="13" font-family="Helvetica,Arial,sans-serif" font-weight="700" fill="#1f2933" text-anchor="middle">One-step family accuracy</text><rect x="456.6666666666667" y="354.01311249137336" width="20" height="55.98688750862664" rx="6" fill="#7a4f9a" stroke="#7a4f9a" stroke-width="1" /><rect x="479.6666666666667" y="324.6969174143087" width="20" height="85.3030825856913" rx="6" fill="#c75c38" stroke="#c75c38" stroke-width="1" /><rect x="502.6666666666667" y="325.6746031746032" width="20" height="84.32539682539681" rx="6" fill="#2f7d5d" stroke="#2f7d5d" stroke-width="1" /><rect x="525.6666666666667" y="311.48378191856455" width="20" height="98.51621808143545" rx="6" fill="#2e5bff" stroke="#2e5bff" stroke-width="1" /><rect x="548.6666666666667" y="307.55866114561763" width="20" height="102.44133885438237" rx="6" fill="#b83280" stroke="#b83280" stroke-width="1" /><rect x="571.6666666666666" y="308.95330112721416" width="20" height="101.04669887278584" rx="6" fill="#0f8b8d" stroke="#0f8b8d" stroke-width="1" /><rect x="594.6666666666667" y="308.1625258799172" width="20" height="101.83747412008279" rx="6" fill="#d97706" stroke="#d97706" stroke-width="1" /><text x="986.6666666666667" y="460" font-size="13" font-family="Helvetica,Arial,sans-serif" font-weight="700" fill="#1f2933" text-anchor="middle">One-step time MAE</text><rect x="823.3333333333334" y="319.29089026915113" width="20" height="90.70910973084887" rx="6" fill="#7a4f9a" stroke="#7a4f9a" stroke-width="1" /><rect x="846.3333333333334" y="343.6036346905912" width="20" height="66.3963653094088" rx="6" fill="#c75c38" stroke="#c75c38" stroke-width="1" /><rect x="869.3333333333334" y="106.42857142857139" width="20" height="303.5714285714286" rx="6" fill="#2f7d5d" stroke="#2f7d5d" stroke-width="1" /><rect x="892.3333333333334" y="351.23821025994937" width="20" height="58.76178974005063" rx="6" fill="#2e5bff" stroke="#2e5bff" stroke-width="1" /><rect x="915.3333333333334" y="351.78456406717277" width="20" height="58.21543593282723" rx="6" fill="#b83280" stroke="#b83280" stroke-width="1" /><rect x="938.3333333333334" y="352.1296296296296" width="20" height="57.87037037037038" rx="6" fill="#0f8b8d" stroke="#0f8b8d" stroke-width="1" /><rect x="961.3333333333334" y="351.7126754083276" width="20" height="58.287324591672416" rx="6" fill="#d97706" stroke="#d97706" stroke-width="1" /><rect x="960" y="78" width="14" height="14" rx="3" fill="#7a4f9a" stroke="#7a4f9a" stroke-width="1" /><text x="982" y="90" font-size="13" font-family="Helvetica,Arial,sans-serif" font-weight="500" fill="#1f2933" text-anchor="start">Global</text><rect x="960" y="104" width="14" height="14" rx="3" fill="#c75c38" stroke="#c75c38" stroke-width="1" /><text x="982" y="116" font-size="13" font-family="Helvetica,Arial,sans-serif" font-weight="500" fill="#1f2933" text-anchor="start">Transition</text><rect x="960" y="130" width="14" height="14" rx="3" fill="#2f7d5d" stroke="#2f7d5d" stroke-width="1" /><text x="982" y="142" font-size="13" font-family="Helvetica,Arial,sans-serif" font-weight="500" fill="#1f2933" text-anchor="start">Mechanistic</text><rect x="960" y="156" width="14" height="14" rx="3" fill="#2e5bff" stroke="#2e5bff" stroke-width="1" /><text x="982" y="168" font-size="13" font-family="Helvetica,Arial,sans-serif" font-weight="500" fill="#1f2933" text-anchor="start">Neural</text><rect x="960" y="182" width="14" height="14" rx="3" fill="#b83280" stroke="#b83280" stroke-width="1" /><text x="982" y="194" font-size="13" font-family="Helvetica,Arial,sans-serif" font-weight="500" fill="#1f2933" text-anchor="start">MT Neural</text><rect x="960" y="208" width="14" height="14" rx="3" fill="#0f8b8d" stroke="#0f8b8d" stroke-width="1" /><text x="982" y="220" font-size="13" font-family="Helvetica,Arial,sans-serif" font-weight="500" fill="#1f2933" text-anchor="start">Continuous</text><rect x="960" y="234" width="14" height="14" rx="3" fill="#d97706" stroke="#d97706" stroke-width="1" /><text x="982" y="246" font-size="13" font-family="Helvetica,Arial,sans-serif" font-weight="500" fill="#1f2933" text-anchor="start">Transformer</text><line x1="70" y1="410.0" x2="1170" y2="410.0" stroke="#9aa5b1" stroke-width="1.5"/></svg>