<svg xmlns="http://www.w3.org/2000/svg" width="1200" height="520" viewBox="0 0 1200 520"><rect x="6" y="6" width="1188" height="508" rx="22" fill="#fffdf8" stroke="#d8dee9" stroke-width="1" /><text x="40" y="40" font-size="28" font-family="Helvetica,Arial,sans-serif" font-weight="700" fill="#1f2933" text-anchor="start">Regime and Data-Scale Comparison</text><text x="40" y="64" font-size="15" font-family="Helvetica,Arial,sans-serif" font-weight="400" fill="#52606d" text-anchor="start">Mean time-conditioned balanced accuracy for the strongest learned models and the mechanistic baseline.</text><line x1="90" y1="410.0" x2="1170" y2="410.0" stroke="#e5e7eb"/><text x="80" y="414.0" font-size="11" font-family="Helvetica,Arial,sans-serif" font-weight="400" fill="#52606d" text-anchor="end">0.57</text><line x1="90" y1="325.0" x2="1170" y2="325.0" stroke="#e5e7eb"/><text x="80" y="328.99999999999994" font-size="11" font-family="Helvetica,Arial,sans-serif" font-weight="400" fill="#52606d" text-anchor="end">0.65</text><line x1="90" y1="240.0" x2="1170" y2="240.0" stroke="#e5e7eb"/><text x="80" y="244.00000000000006" font-size="11" font-family="Helvetica,Arial,sans-serif" font-weight="400" fill="#52606d" text-anchor="end">0.72</text><line x1="90" y1="155.0" x2="1170" y2="155.0" stroke="#e5e7eb"/><text x="80" y="159.00000000000003" font-size="11" font-family="Helvetica,Arial,sans-serif" font-weight="400" fill="#52606d" text-anchor="end">0.79</text><line x1="90" y1="70.0" x2="1170" y2="70.0" stroke="#e5e7eb"/><text x="80" y="74.0" font-size="11" font-family="Helvetica,Arial,sans-serif" font-weight="400" fill="#52606d" text-anchor="end">0.86</text><text x="90.0" y="460" font-size="13" font-family="Helvetica,Arial,sans-serif" font-weight="700" fill="#1f2933" text-anchor="middle">Fixed 24/6</text><text x="630.0" y="460" font-size="13" font-family="Helvetica,Arial,sans-serif" font-weight="700" fill="#1f2933" text-anchor="middle">Adaptive 24/6</text><text x="1170.0" y="460" font-size="13" font-family="Helvetica,Arial,sans-serif" font-weight="700" fill="#1f2933" text-anchor="middle">Adaptive 60/20</text><circle cx="90.0" cy="334.4" r="5" fill="#2e5bff"/><circle cx="630.0" cy="270.0" r="5" fill="#2e5bff"/><circle cx="1170.0" cy="251.2" r="5" fill="#2e5bff"/><polyline points="90.0,334.4 630.0,270.0 1170.0,251.2" fill="none" stroke="#2e5bff" stroke-width="3" stroke-linecap="round" stroke-linejoin="round"/><circle cx="90.0" cy="216.9" r="5" fill="#b83280"/><circle cx="630.0" cy="194.8" r="5" fill="#b83280"/><circle cx="1170.0" cy="127.4" r="5" fill="#b83280"/><polyline points="90.0,216.9 630.0,194.8 1170.0,127.4" fill="none" stroke="#b83280" stroke-width="3" stroke-linecap="round" stroke-linejoin="round"/><circle cx="90.0" cy="244.1" r="5" fill="#0f8b8d"/><circle cx="630.0" cy="209.9" r="5" fill="#0f8b8d"/><circle cx="1170.0" cy="158.6" r="5" fill="#0f8b8d"/><polyline points="90.0,244.1 630.0,209.9 1170.0,158.6" fill="none" stroke="#0f8b8d" stroke-width="3" stroke-linecap="round" stroke-linejoin="round"/><circle cx="90.0" cy="236.9" r="5" fill="#d97706"/><circle cx="630.0" cy="260.6" r="5" fill="#d97706"/><circle cx="1170.0" cy="143.5" r="5" fill="#d97706"/><polyline points="90.0,236.9 630.0,260.6 1170.0,143.5" fill="none" stroke="#d97706" stroke-width="3" stroke-linecap="round" stroke-linejoin="round"/><circle cx="90.0" cy="341.0" r="5" fill="#2f7d5d"/><circle cx="630.0" cy="351.4" r="5" fill="#2f7d5d"/><circle cx="1170.0" cy="338.9" r="5" fill="#2f7d5d"/><polyline points="90.0,341.0 630.0,351.4 1170.0,338.9" fill="none" stroke="#2f7d5d" stroke-width="3" stroke-linecap="round" stroke-linejoin="round"/><rect x="950" y="89" width="14" height="14" rx="3" fill="#2e5bff" stroke="#2e5bff" stroke-width="1" /><text x="972" y="100" font-size="13" font-family="Helvetica,Arial,sans-serif" font-weight="500" fill="#1f2933" text-anchor="start">Neural</text><rect x="950" y="115" width="14" height="14" rx="3" fill="#b83280" stroke="#b83280" stroke-width="1" /><text x="972" y="126" font-size="13" font-family="Helvetica,Arial,sans-serif" font-weight="500" fill="#1f2933" text-anchor="start">MT Neural</text><rect x="950" y="141" width="14" height="14" rx="3" fill="#0f8b8d" stroke="#0f8b8d" stroke-width="1" /><text x="972" y="152" font-size="13" font-family="Helvetica,Arial,sans-serif" font-weight="500" fill="#1f2933" text-anchor="start">Continuous</text><rect x="950" y="167" width="14" height="14" rx="3" fill="#d97706" stroke="#d97706" stroke-width="1" /><text x="972" y="178" font-size="13" font-family="Helvetica,Arial,sans-serif" font-weight="500" fill="#1f2933" text-anchor="start">Transformer</text><rect x="950" y="193" width="14" height="14" rx="3" fill="#2f7d5d" stroke="#2f7d5d" stroke-width="1" /><text x="972" y="204" font-size="13" font-family="Helvetica,Arial,sans-serif" font-weight="500" fill="#1f2933" text-anchor="start">Mechanistic</text></svg>